<svg aria-hidden="true" style="position: absolute; width: 0; height: 0; overflow: hidden;" version="1.1" xmlns="http://www.w3.org/2000/svg" xmlns:xlink="http://www.w3.org/1999/xlink">
<defs>
<symbol id="icon-copy" viewBox="0 0 32 32">
<path d="M26.99 4.571h-1.984c-0.041 0-0.078 0.014-0.117 0.024v-2.084c0-1.385-1.152-2.511-2.569-2.511h-17.211c-1.417 0-2.569 1.127-2.569 2.511v23.422c0 1.385 1.152 2.511 2.569 2.511h3.018v1.134c0 1.335 1.108 2.422 2.471 2.422h16.392c1.363 0 2.471-1.086 2.471-2.422v-22.585c0-1.335-1.108-2.422-2.471-2.422zM3.556 25.933v-23.422c0-0.824 0.697-1.496 1.553-1.496h17.211c0.856 0 1.553 0.671 1.553 1.496v23.422c0 0.824-0.697 1.496-1.553 1.496h-17.211c-0.856 0-1.553-0.671-1.553-1.496zM28.444 29.578c0 0.775-0.653 1.406-1.455 1.406h-16.392c-0.802 0-1.455-0.63-1.455-1.406v-1.134h13.177c1.417 0 2.569-1.127 2.569-2.511v-20.369c0.038 0.009 0.075 0.024 0.117 0.024h1.984c0.802 0 1.455 0.63 1.455 1.406v22.585z"></path>
<path d="M19.302 6.603h-11.175c-0.281 0-0.508 0.227-0.508 0.508s0.227 0.508 0.508 0.508h11.175c0.281 0 0.508-0.227 0.508-0.508s-0.227-0.508-0.508-0.508z"></path>
<path d="M19.302 10.667h-11.175c-0.281 0-0.508 0.227-0.508 0.508s0.227 0.508 0.508 0.508h11.175c0.281 0 0.508-0.227 0.508-0.508s-0.227-0.508-0.508-0.508z"></path>
<path d="M19.302 14.73h-11.175c-0.281 0-0.508 0.227-0.508 0.508s0.227 0.508 0.508 0.508h11.175c0.281 0 0.508-0.227 0.508-0.508s-0.227-0.508-0.508-0.508z"></path>
<path d="M14.222 18.794h-6.095c-0.281 0-0.508 0.227-0.508 0.508s0.227 0.508 0.508 0.508h6.095c0.281 0 0.508-0.227 0.508-0.508s-0.227-0.508-0.508-0.508z"></path>
</symbol>
</defs>
</svg>
